<svg width="46" height="46" viewBox="0 0 46 46" fill="none" xmlns="http://www.w3.org/2000/svg">
<rect width="46" height="46" rx="12" fill="#F04716"/>
<path d="M23 16.9889C21 12.4925 12 12.7407 12 19.9925C12 26.3378 18.5 30 23 32C27.5 30 34 26.3379 34 19.9925C34 12.7407 25 12.4925 23 16.9889Z" stroke="white"/>
<path d="M34 17.5C34 16.6716 33.3284 16 32.5 16C31.6716 16 31 16.6716 31 17.5V19H29.5C28.6716 19 28 19.6716 28 20.5C28 21.3284 28.6716 22 29.5 22H31V23.5C31 24.3284 31.6716 25 32.5 25C33.3284 25 34 24.3284 34 23.5V22H35.5C36.3284 22 37 21.3284 37 20.5C37 19.6716 36.3284 19 35.5 19H34V17.5Z" fill="white" stroke="#F04716" stroke-width="2"/>
</svg>
