<svg width="46" height="46" viewBox="0 0 46 46" fill="none" xmlns="http://www.w3.org/2000/svg">
<rect x="0.5" y="0.5" width="45" height="45" rx="11.5" fill="white"/>
<path d="M23 16.9889C21 12.4925 12 12.7407 12 19.9925C12 26.3378 18.5 30 23 32C27.5 30 34 26.3379 34 19.9925C34 12.7407 25 12.4925 23 16.9889Z" stroke="#F04716"/>
<path d="M32 19.5858L31.2071 18.7929C30.5404 18.1262 29.4596 18.1262 28.7929 18.7929C28.1262 19.4596 28.1262 20.5404 28.7929 21.2071L31.2929 23.7071C31.6834 24.0976 32.3166 24.0976 32.7071 23.7071L36.2071 20.2071C36.8738 19.5404 36.8738 18.4596 36.2071 17.7929C35.5404 17.1262 34.4596 17.1262 33.7929 17.7929L32 19.5858Z" fill="#F04716" stroke="white" stroke-width="2" stroke-linejoin="round"/>
<rect x="0.5" y="0.5" width="45" height="45" rx="11.5" stroke="#DEDFE7"/>
</svg>
